<?xml version="1.0" encoding="utf-8"?>
<!-- Generator: Adobe Illustrator 18.0.0, SVG Export Plug-In . SVG Version: 6.00 Build 0)  -->
<!DOCTYPE svg PUBLIC "-//W3C//DTD SVG 1.1//EN" "http://www.w3.org/Graphics/SVG/1.1/DTD/svg11.dtd">
<svg version="1.1" id="Layer_1" xmlns="http://www.w3.org/2000/svg" xmlns:xlink="http://www.w3.org/1999/xlink" x="0px" y="0px"
	 viewBox="0 0 216 108" enable-background="new 0 0 216 108" xml:space="preserve">
<g>
	
		<image overflow="visible" opacity="0.75" width="214" height="47" xlink:href="8DAC15DF85EA6231.png"  transform="matrix(1 0 0 1 2 32)">
	</image>
	<g>
		<g>
			<g>
				<g>
					<path fill="#EC278E" d="M45.3,50.2L45.3,50.2c0-4.7,3.6-8.2,8.4-8.2c2.9,0,4.7,0.7,6.2,2.2l-2.2,2.7c-1.3-1.1-2.2-1.6-4.2-1.6
						c-2.4,0-4.7,2.2-4.7,4.9l0,0c0,2.9,2,5.1,4.9,5.1c1.3,0,2.4-0.2,3.3-0.9v-2.2h-3.6v-3.3h6.9v6.9c-1.6,1.3-3.8,2.4-6.9,2.4
						C48.7,58.4,45.3,54.9,45.3,50.2z"/>
					<path fill="#EC278E" d="M62.4,42.2h12v3.1H66v3.3h7.3v3.1h-7.6v3.1h8.7V58H62.2V42.2H62.4z"/>
					<path fill="#EC278E" d="M76.2,42.2h3.3l7.6,9.8v-9.8h3.6v16h-2.9L80,48v10.2h-3.6v-16H76.2z"/>
					<path fill="#EC278E" d="M92.9,42.2h12v3.1h-8.4v3.3h7.6v3.1h-7.6v3.1h8.7V58H92.9C92.9,58,92.9,42.2,92.9,42.2z"/>
					<path fill="#EC278E" d="M105.8,55.8l2-2.4c1.3,1.1,2.9,2,4.7,2c1.3,0,2.2-0.7,2.2-1.6l0,0c0-0.9-0.4-1.3-3.1-2
						c-3.1-0.9-5.3-1.8-5.3-4.9l0,0c0-2.9,2.2-4.9,5.6-4.9c2.2,0,4.2,0.7,6,2l-1.8,2.7c-1.3-0.9-2.9-1.6-4.2-1.6c-1.3,0-2,0.7-2,1.3
						l0,0c0,1.1,0.7,1.3,3.3,2c3.3,0.9,5.1,2,5.1,4.7l0,0c0,3.1-2.4,4.9-5.8,4.9C110,58.2,107.6,57.6,105.8,55.8z"/>
					<path fill="#EC278E" d="M120.2,42.2h3.6v16h-3.6V42.2z"/>
					<path fill="#EC278E" d="M125.1,55.8l2-2.4c1.3,1.1,2.9,2,4.7,2c1.3,0,2.2-0.7,2.2-1.6l0,0c0-0.9-0.4-1.3-3.1-2
						c-3.1-0.9-5.3-1.8-5.3-4.9l0,0c0-2.9,2.2-4.9,5.6-4.9c2.2,0,4.2,0.7,6,2l-1.6,2.7c-1.3-0.9-2.9-1.6-4.2-1.6c-1.3,0-2,0.7-2,1.3
						l0,0c0,1.1,0.7,1.3,3.3,2c3.3,0.9,5.1,2,5.1,4.9l0,0c0,3.1-2.4,4.9-5.8,4.9C129.6,58.2,127.1,57.6,125.1,55.8z"/>
				</g>
				<g>
					<path fill="#EC278E" d="M139.8,42.2h1.8l5.8,8.7l5.8-8.7h1.8v16h-1.8V45.1l-5.8,8.4l0,0l-5.8-8.4V58h-1.8
						C139.8,58,139.8,42.2,139.8,42.2z"/>
					<path fill="#EC278E" d="M158.2,42.2h11.6v1.6H160v5.3h8.7v1.6H160v5.6h9.8v1.6h-11.6L158.2,42.2L158.2,42.2z"/>
					<path fill="#EC278E" d="M172,42.2h5.6c4.9,0,8.4,3.3,8.4,8l0,0c0,4.4-3.6,8-8.4,8H172V42.2z M177.6,56.4c4,0,6.7-2.7,6.7-6.2
						l0,0c0-3.6-2.7-6.2-6.7-6.2h-3.8v12.7h3.8V56.4z"/>
					<path fill="#EC278E" d="M188.7,42.2h1.8v16h-1.8V42.2z"/>
					<path fill="#EC278E" d="M199.6,42h1.8l7.3,16h-2l-1.8-4.2h-8.7l-1.8,4.2h-1.8L199.6,42z M204,52.2l-3.6-8.2l-3.6,8.2H204z"/>
				</g>
				<g>
					<g>
						<path fill="#EC278E" d="M21.1,34.2c9.3-0.7,15.8,4.9,18.2,11.8c0.7,1.3,1.8,4.7-0.9,4.4c-1.1-0.2-1.3-1.8-1.8-3.1
							c-2.2-6.4-8.9-12-18.2-9.8c-1.3,0.2-3.1,1.1-3.6-0.4C14.2,34.4,19.1,34.2,21.1,34.2z"/>
						<path fill="#EC278E" d="M19.8,39.8c8.7-0.7,14.7,5.3,15.1,13.6c0.2,2.9-0.4,5.6-1.3,8.2c-2.4,6.7-7.8,11.8-15.6,13.1
							c-2.7,0.4-7.6,0.4-7.8-1.3c0-0.9,0.4-1.8,2.2-1.8c1.1,0,2.4,0.2,3.8,0.2c2.4,0,4.7-0.9,6.2-1.6c4.7-2.4,9.1-7.6,9.6-14.2
							c0.7-9.3-7.3-16.4-16.4-12.2c-4.7,2.2-8.9,7.3-8.4,13.8c0.4,5.1,4.2,9.6,10.2,8.4c4.9-0.9,8.7-4.7,8.9-10
							c0.2-3.1-0.9-5.6-2.9-6.7c-1.6-1.1-4.2-1.1-6-0.4c-3.1,1.3-6,5.8-4.2,9.6c0.7,1.3,2.4,2.4,4.7,1.8c1.3-0.4,2.4-1.6,2.9-2.7
							c0.7-1.6,0.4-3.6-0.9-3.6c-1.3,0-0.9,1.1-1.3,2.2c-0.2,0.9-1.1,1.6-2.2,1.3c-1.3-0.4-0.9-3.1-0.4-4c0.7-1.6,2.2-2.9,4.7-2.7
							c2.2,0.2,3.8,2.4,3.3,5.6c-0.4,4.4-6,9.1-11.1,6c-0.9-0.7-2-2-2.4-3.1c-1.8-4.7,0.9-9.1,3.6-11.3c1.3-1.1,3.1-2.2,5.6-2.4
							c2.4-0.2,4.4,0.2,6.2,1.6c3.6,2.4,4.4,7.1,3.3,11.8c-1.1,4.2-4,7.1-7.1,8.9c-1.8,0.9-3.8,1.8-6.4,1.6
							C8.4,69.1,3.8,63.8,4.2,56.4c0.2-4.9,2.2-8.2,4.9-11.1C11.6,42.2,15.6,40,19.8,39.8z"/>
					</g>
				</g>
			</g>
			<g>
				<path fill="#EC278E" d="M206.7,42.4h-1.1V42h2.4v0.2h-1.1v2.9h-0.2V42.4z"/>
				<path fill="#EC278E" d="M208.9,42h0.4l0.9,1.8l1.1-1.8h0.4v3.1h-0.4v-2.4l-1.1,1.8l0,0l-1.1-1.8v2.7h-0.2V42z"/>
			</g>
		</g>
	</g>
</g>
<g>
	
		<image overflow="visible" opacity="0.75" width="154" height="18" xlink:href="8DAC15DF85EA6233.png"  transform="matrix(1 0 0 1 44 60)">
	</image>
	<g>
		<g>
			<path fill="#F2F2F2" d="M49.8,64.2h-3.3v-1.1H54v1.1h-3.3v8.7h-1.1v-8.7H49.8z"/>
			<path fill="#F2F2F2" d="M55.6,62.9h1.1v4.2c0.4-0.7,1.1-1.3,2.4-1.3c1.8,0,2.7,1.1,2.7,2.9v4.4h-1.1v-4.2c0-1.3-0.7-2.2-2-2.2
				c-1.1,0-2.2,0.9-2.2,2.2v4h-0.9V62.9z"/>
			<path fill="#F2F2F2" d="M66.7,72c0.9,0,1.6-0.4,2.2-1.1l0.7,0.7c-0.7,0.9-1.6,1.3-2.9,1.3c-2,0-3.6-1.6-3.6-3.8
				c0-2,1.3-3.8,3.3-3.8c2,0,3.3,1.8,3.3,3.8c0,0,0,0.2,0,0.4h-5.6C64.4,71.1,65.3,72,66.7,72z M68.7,68.9c-0.2-1.3-0.9-2.4-2.2-2.4
				c-1.1,0-2.2,1.1-2.2,2.4H68.7z"/>
			<path fill="#F2F2F2" d="M78.7,63.1h1.1l4.4,9.8h-1.1L82,70.4h-5.3l-1.1,2.4h-1.1L78.7,63.1z M81.3,69.3l-2.2-4.9l-2.2,4.9H81.3z"
				/>
			<path fill="#F2F2F2" d="M85.8,70.9v-4.2h-0.9v-0.9h0.9v-2.2h1.1v2.2h2.2v0.9h-2.2v4.2c0,0.9,0.4,1.1,1.1,1.1c0.4,0,0.7,0,1.1-0.2
				v0.9c-0.4,0.2-0.7,0.2-1.3,0.2C86.7,72.9,85.8,72.4,85.8,70.9z"/>
			<path fill="#F2F2F2" d="M90.9,70.9v-4.2H90v-0.9h0.9v-2.2H92v2.2h2.2v0.9H92v4.2c0,0.9,0.4,1.1,1.1,1.1c0.4,0,0.7,0,1.1-0.2v0.9
				c-0.4,0.2-0.7,0.2-1.3,0.2C91.8,72.9,90.9,72.4,90.9,70.9z"/>
			<path fill="#F2F2F2" d="M98.9,72c0.9,0,1.6-0.4,2.2-1.1l0.7,0.7c-0.7,0.9-1.6,1.3-2.9,1.3c-2,0-3.6-1.6-3.6-3.8
				c0-2,1.3-3.8,3.3-3.8c2,0,3.3,1.8,3.3,3.8c0,0,0,0.2,0,0.4h-5.6C96.4,71.1,97.6,72,98.9,72z M100.9,68.9
				c-0.2-1.3-0.9-2.4-2.2-2.4c-1.1,0-2.2,1.1-2.2,2.4H100.9z"/>
			<path fill="#F2F2F2" d="M103.3,65.8h1.1v1.3c0.4-0.7,1.1-1.3,2.4-1.3c1.8,0,2.7,1.1,2.7,2.9v4.4h-1.1v-4.2c0-1.3-0.7-2.2-2-2.2
				c-1.1,0-2.2,0.9-2.2,2.2v4h-1.1v-7.1H103.3z"/>
			<path fill="#F2F2F2" d="M111.8,70.9v-4.2h-0.9v-0.9h0.9v-2.2h1.1v2.2h2.2v0.9h-2.2v4.2c0,0.9,0.4,1.1,1.1,1.1
				c0.4,0,0.7,0,1.1-0.2v0.9c-0.4,0.2-0.7,0.2-1.3,0.2C112.7,72.9,111.8,72.4,111.8,70.9z"/>
			<path fill="#F2F2F2" d="M116.7,62.9h1.1V64h-1.1V62.9z M116.7,65.8h1.1v7.1h-1.1V65.8z"/>
			<path fill="#F2F2F2" d="M119.3,69.3L119.3,69.3c0-2,1.6-3.8,3.8-3.8s3.8,1.8,3.8,3.8l0,0c0,2-1.6,3.8-3.8,3.8
				C120.9,72.9,119.3,71.3,119.3,69.3z M125.6,69.3L125.6,69.3c0-1.6-1.1-2.9-2.7-2.9s-2.7,1.3-2.7,2.7l0,0c0,1.6,1.1,2.7,2.7,2.7
				C124.7,72,125.6,70.9,125.6,69.3z"/>
			<path fill="#F2F2F2" d="M128.2,65.8h1.1v1.3c0.4-0.7,1.1-1.3,2.4-1.3c1.8,0,2.7,1.1,2.7,2.9v4.4h-1.1v-4.2c0-1.3-0.7-2.2-2-2.2
				c-1.1,0-2.2,0.9-2.2,2.2v4H128v-7.1H128.2z"/>
			<path fill="#F2F2F2" d="M140.2,63.1h3.6c2.2,0,3.6,1.1,3.6,3.1l0,0c0,2-1.8,3.1-3.8,3.1h-2.2v3.3h-1.1V63.1z M143.6,68.4
				c1.6,0,2.7-0.9,2.7-2.2l0,0c0-1.3-1.1-2-2.7-2h-2.4v4.2H143.6z"/>
			<path fill="#F2F2F2" d="M148.9,62.9h1.1v10h-1.1V62.9z"/>
			<path fill="#F2F2F2" d="M151.3,70.7L151.3,70.7c0-1.6,1.3-2.4,3.1-2.4c0.9,0,1.6,0.2,2.2,0.2v-0.2c0-1.3-0.7-2-2-2
				c-0.9,0-1.6,0.2-2.2,0.4l-0.2-0.9c0.9-0.4,1.6-0.7,2.7-0.7s1.8,0.2,2.2,0.9c0.4,0.4,0.7,1.1,0.7,2v4.4h-1.1v-1.1
				c-0.4,0.7-1.3,1.1-2.4,1.1C152.7,72.9,151.3,72.2,151.3,70.7z M156.7,70.2v-0.7c-0.4-0.2-1.1-0.2-2-0.2c-1.3,0-2,0.7-2,1.3l0,0
				c0,0.9,0.9,1.3,1.8,1.3C155.6,72,156.7,71.3,156.7,70.2z"/>
			<path fill="#F2F2F2" d="M159.8,70.9v-4.2h-0.9v-0.9h0.9v-2.2h1.1v2.2h2.2v0.9h-2.2v4.2c0,0.9,0.4,1.1,1.1,1.1
				c0.4,0,0.7,0,1.1-0.2v0.9c-0.4,0.2-0.7,0.2-1.3,0.2C160.7,72.9,159.8,72.4,159.8,70.9z"/>
			<path fill="#F2F2F2" d="M165.1,66.7h-0.9v-0.9h0.9v-0.7c0-0.9,0.2-1.3,0.7-1.8c0.4-0.4,0.9-0.4,1.6-0.4c0.4,0,0.9,0,1.1,0.2v0.7
				c-0.4,0-0.7-0.2-1.1-0.2c-0.9,0-1.3,0.4-1.3,1.6v0.7h2.2v0.9H166v6.2h-1.1v-6.2H165.1z"/>
			<path fill="#F2F2F2" d="M168.9,69.3L168.9,69.3c0-2,1.6-3.8,3.8-3.8c2.2,0,3.8,1.8,3.8,3.8l0,0c0,2-1.6,3.8-3.8,3.8
				C170.4,72.9,168.9,71.3,168.9,69.3z M175.1,69.3L175.1,69.3c0-1.6-1.1-2.9-2.7-2.9c-1.6,0-2.7,1.3-2.7,2.7l0,0
				c0,1.6,1.1,2.7,2.7,2.7C174,72,175.1,70.9,175.1,69.3z"/>
			<path fill="#F2F2F2" d="M177.8,65.8h1.1v1.8c0.4-1.1,1.6-2,2.9-2v1.1l0,0c-1.6,0-2.9,1.1-2.9,3.3v2.9h-1.1V65.8z"/>
			<path fill="#F2F2F2" d="M182.9,65.8h1.1v1.1c0.4-0.7,1.1-1.3,2.2-1.3c1.1,0,2,0.7,2.2,1.3c0.4-0.9,1.3-1.3,2.4-1.3
				c1.6,0,2.7,1.1,2.7,2.9v4.4h-1.1v-4.2c0-1.3-0.7-2.2-1.8-2.2c-1.1,0-2,0.9-2,2.2v4h-1.1v-4.2c0-1.3-0.7-2.2-1.8-2.2
				c-1.1,0-2,0.9-2,2.2v4h-1.1v-6.7H182.9z"/>
		</g>
	</g>
</g>
</svg>
