<?xml version="1.0" encoding="utf-8"?>
<!-- Generator: Adobe Illustrator 18.0.0, SVG Export Plug-In . SVG Version: 6.00 Build 0)  -->
<!DOCTYPE svg PUBLIC "-//W3C//DTD SVG 1.1//EN" "http://www.w3.org/Graphics/SVG/1.1/DTD/svg11.dtd">
<svg version="1.1" id="Layer_1" xmlns="http://www.w3.org/2000/svg" xmlns:xlink="http://www.w3.org/1999/xlink" x="0px" y="0px"
	 viewBox="0 0 97.2 21.2" enable-background="new 0 0 97.2 21.2" xml:space="preserve">
<g>
	<g>
		<g>
			<path fill="#EC278E" d="M20.4,8.9L20.4,8.9c0-2.1,1.6-3.7,3.8-3.7c1.3,0,2.1,0.3,2.8,1l-1,1.2c-0.6-0.5-1-0.7-1.9-0.7
				c-1.1,0-2.1,1-2.1,2.2v0c0,1.3,0.9,2.3,2.2,2.3c0.6,0,1.1-0.1,1.5-0.4v-1h-1.6V8.3h3.1v3.1c-0.7,0.6-1.7,1.1-3.1,1.1
				C21.9,12.6,20.4,11,20.4,8.9z"/>
			<path fill="#EC278E" d="M28.1,5.3h5.4v1.4h-3.8v1.5H33v1.4h-3.4V11h3.9v1.4h-5.5V5.3z"/>
			<path fill="#EC278E" d="M34.3,5.3h1.5l3.4,4.4V5.3h1.6v7.2h-1.3l-3.5-4.6v4.6h-1.6V5.3z"/>
			<path fill="#EC278E" d="M41.8,5.3h5.4v1.4h-3.8v1.5h3.4v1.4h-3.4V11h3.9v1.4h-5.5V5.3z"/>
			<path fill="#EC278E" d="M47.6,11.4l0.9-1.1c0.6,0.5,1.3,0.9,2.1,0.9c0.6,0,1-0.3,1-0.7v0c0-0.4-0.2-0.6-1.4-0.9
				c-1.4-0.4-2.4-0.8-2.4-2.2v0c0-1.3,1-2.2,2.5-2.2c1,0,1.9,0.3,2.7,0.9l-0.8,1.2c-0.6-0.4-1.3-0.7-1.9-0.7c-0.6,0-0.9,0.3-0.9,0.6
				v0c0,0.5,0.3,0.6,1.5,0.9c1.5,0.4,2.3,0.9,2.3,2.1v0c0,1.4-1.1,2.2-2.6,2.2C49.5,12.5,48.4,12.2,47.6,11.4z"/>
			<path fill="#EC278E" d="M54.1,5.3h1.6v7.2h-1.6V5.3z"/>
			<path fill="#EC278E" d="M56.3,11.4l0.9-1.1c0.6,0.5,1.3,0.9,2.1,0.9c0.6,0,1-0.3,1-0.7v0c0-0.4-0.2-0.6-1.4-0.9
				c-1.4-0.4-2.4-0.8-2.4-2.2v0c0-1.3,1-2.2,2.5-2.2c1,0,1.9,0.3,2.7,0.9L61,7.3c-0.6-0.4-1.3-0.7-1.9-0.7c-0.6,0-0.9,0.3-0.9,0.6v0
				c0,0.5,0.3,0.6,1.5,0.9C61.2,8.5,62,9,62,10.3v0c0,1.4-1.1,2.2-2.6,2.2C58.3,12.5,57.2,12.2,56.3,11.4z"/>
		</g>
		<g>
			<path fill="#EC278E" d="M62.9,5.3h0.8l2.6,3.9l2.6-3.9h0.8v7.2h-0.8V6.6l-2.6,3.8h0l-2.6-3.8v5.8h-0.8V5.3z"/>
			<path fill="#EC278E" d="M71.2,5.3h5.2V6H72v2.4h3.9v0.7H72v2.5h4.4v0.7h-5.2V5.3z"/>
			<path fill="#EC278E" d="M77.4,5.3h2.5c2.2,0,3.8,1.5,3.8,3.6v0c0,2-1.6,3.6-3.8,3.6h-2.5V5.3z M79.9,11.7c1.8,0,3-1.2,3-2.8v0
				c0-1.6-1.2-2.8-3-2.8h-1.7v5.7H79.9z"/>
			<path fill="#EC278E" d="M84.9,5.3h0.8v7.2h-0.8V5.3z"/>
			<path fill="#EC278E" d="M89.8,5.2h0.8l3.3,7.2H93l-0.8-1.9h-3.9l-0.8,1.9h-0.8L89.8,5.2z M91.8,9.8l-1.6-3.7l-1.6,3.7H91.8z"/>
		</g>
		<g>
			<g>
				<path fill="#EC278E" d="M9.5,1.7c4.2-0.3,7.1,2.2,8.2,5.3C18,7.6,18.5,9.1,17.3,9c-0.5-0.1-0.6-0.8-0.8-1.4
					c-1-2.9-4-5.4-8.2-4.4C7.7,3.3,6.9,3.7,6.7,3C6.4,1.8,8.6,1.7,9.5,1.7z"/>
				<path fill="#EC278E" d="M8.9,4.2c3.9-0.3,6.6,2.4,6.8,6.1c0.1,1.3-0.2,2.5-0.6,3.7c-1.1,3-3.5,5.3-7,5.9
					c-1.2,0.2-3.4,0.2-3.5-0.6c0-0.4,0.2-0.8,1-0.8c0.5,0,1.1,0.1,1.7,0.1c1.1,0,2.1-0.4,2.8-0.7c2.1-1.1,4.1-3.4,4.3-6.4
					C14.7,7.3,11.1,4.1,7,6C4.9,7,3,9.3,3.2,12.2c0.2,2.3,1.9,4.3,4.6,3.8c2.2-0.4,3.9-2.1,4-4.5c0.1-1.4-0.4-2.5-1.3-3
					C9.8,8,8.6,8,7.8,8.3c-1.4,0.6-2.7,2.6-1.9,4.3C6.2,13.2,7,13.7,8,13.4c0.6-0.2,1.1-0.7,1.3-1.2c0.3-0.7,0.2-1.6-0.4-1.6
					c-0.6,0-0.4,0.5-0.6,1c-0.1,0.4-0.5,0.7-1,0.6c-0.6-0.2-0.4-1.4-0.2-1.8c0.3-0.7,1-1.3,2.1-1.2c1,0.1,1.7,1.1,1.5,2.5
					c-0.2,2-2.7,4.1-5,2.7c-0.4-0.3-0.9-0.9-1.1-1.4C3.8,10.9,5,8.9,6.2,7.9c0.6-0.5,1.4-1,2.5-1.1c1.1-0.1,2,0.1,2.8,0.7
					c1.6,1.1,2,3.2,1.5,5.3c-0.5,1.9-1.8,3.2-3.2,4c-0.8,0.4-1.7,0.8-2.9,0.7c-3.1-0.1-5.2-2.5-5-5.8c0.1-2.2,1-3.7,2.2-5
					C5.2,5.3,7,4.3,8.9,4.2z"/>
			</g>
		</g>
	</g>
	<g>
		<path fill="#EC278E" d="M93,5.4h-0.5V5.2h1.1v0.1h-0.5v1.3H93V5.4z"/>
		<path fill="#EC278E" d="M94,5.2h0.2L94.6,6l0.5-0.8h0.2v1.4h-0.2V5.5l-0.5,0.8h0l-0.5-0.8v1.2H94V5.2z"/>
	</g>
</g>
<g>
	<path fill="#F2F2F2" d="M22.4,15.2h-1.5v-0.5h3.4v0.5h-1.5v3.9h-0.5V15.2z"/>
	<path fill="#F2F2F2" d="M25,14.6h0.5v1.9c0.2-0.3,0.5-0.6,1.1-0.6c0.8,0,1.2,0.5,1.2,1.3v2h-0.5v-1.9c0-0.6-0.3-1-0.9-1
		c-0.5,0-1,0.4-1,1v1.8H25V14.6z"/>
	<path fill="#F2F2F2" d="M30,18.7c0.4,0,0.7-0.2,1-0.5l0.3,0.3c-0.3,0.4-0.7,0.6-1.3,0.6c-0.9,0-1.6-0.7-1.6-1.7
		c0-0.9,0.6-1.7,1.5-1.7c0.9,0,1.5,0.8,1.5,1.7c0,0,0,0.1,0,0.2h-2.5C29,18.3,29.4,18.7,30,18.7z M30.9,17.3c-0.1-0.6-0.4-1.1-1-1.1
		c-0.5,0-1,0.5-1,1.1H30.9z"/>
	<path fill="#F2F2F2" d="M35.4,14.7h0.5l2,4.4h-0.5l-0.5-1.1h-2.4l-0.5,1.1h-0.5L35.4,14.7z M36.6,17.5l-1-2.2l-1,2.2H36.6z"/>
	<path fill="#F2F2F2" d="M38.6,18.2v-1.9h-0.4v-0.4h0.4v-1h0.5v1h1v0.4h-1v1.9c0,0.4,0.2,0.5,0.5,0.5c0.2,0,0.3,0,0.5-0.1V19
		c-0.2,0.1-0.3,0.1-0.6,0.1C39,19.1,38.6,18.9,38.6,18.2z"/>
	<path fill="#F2F2F2" d="M40.9,18.2v-1.9h-0.4v-0.4h0.4v-1h0.5v1h1v0.4h-1v1.9c0,0.4,0.2,0.5,0.5,0.5c0.2,0,0.3,0,0.5-0.1V19
		c-0.2,0.1-0.3,0.1-0.6,0.1C41.3,19.1,40.9,18.9,40.9,18.2z"/>
	<path fill="#F2F2F2" d="M44.5,18.7c0.4,0,0.7-0.2,1-0.5l0.3,0.3c-0.3,0.4-0.7,0.6-1.3,0.6c-0.9,0-1.6-0.7-1.6-1.7
		c0-0.9,0.6-1.7,1.5-1.7c0.9,0,1.5,0.8,1.5,1.7c0,0,0,0.1,0,0.2h-2.5C43.4,18.3,43.9,18.7,44.5,18.7z M45.4,17.3
		c-0.1-0.6-0.4-1.1-1-1.1c-0.5,0-1,0.5-1,1.1H45.4z"/>
	<path fill="#F2F2F2" d="M46.5,15.9H47v0.6c0.2-0.3,0.5-0.6,1.1-0.6c0.8,0,1.2,0.5,1.2,1.3v2h-0.5v-1.9c0-0.6-0.3-1-0.9-1
		c-0.5,0-1,0.4-1,1v1.8h-0.5V15.9z"/>
	<path fill="#F2F2F2" d="M50.3,18.2v-1.9h-0.4v-0.4h0.4v-1h0.5v1h1v0.4h-1v1.9c0,0.4,0.2,0.5,0.5,0.5c0.2,0,0.3,0,0.5-0.1V19
		c-0.2,0.1-0.3,0.1-0.6,0.1C50.7,19.1,50.3,18.9,50.3,18.2z"/>
	<path fill="#F2F2F2" d="M52.5,14.6H53v0.5h-0.5V14.6z M52.5,15.9H53v3.2h-0.5V15.9z"/>
	<path fill="#F2F2F2" d="M53.7,17.5L53.7,17.5c0-0.9,0.7-1.7,1.7-1.7c1,0,1.7,0.8,1.7,1.7v0c0,0.9-0.7,1.7-1.7,1.7
		C54.4,19.1,53.7,18.4,53.7,17.5z M56.5,17.5L56.5,17.5c0-0.7-0.5-1.3-1.2-1.3c-0.7,0-1.2,0.6-1.2,1.2v0c0,0.7,0.5,1.2,1.2,1.2
		C56.1,18.7,56.5,18.2,56.5,17.5z"/>
	<path fill="#F2F2F2" d="M57.7,15.9h0.5v0.6c0.2-0.3,0.5-0.6,1.1-0.6c0.8,0,1.2,0.5,1.2,1.3v2H60v-1.9c0-0.6-0.3-1-0.9-1
		c-0.5,0-1,0.4-1,1v1.8h-0.5V15.9z"/>
	<path fill="#F2F2F2" d="M63.1,14.7h1.6c1,0,1.6,0.5,1.6,1.4v0c0,0.9-0.8,1.4-1.7,1.4h-1v1.5h-0.5V14.7z M64.6,17.1
		c0.7,0,1.2-0.4,1.2-1v0c0-0.6-0.5-0.9-1.2-0.9h-1.1v1.9H64.6z"/>
	<path fill="#F2F2F2" d="M67,14.6h0.5v4.5H67V14.6z"/>
	<path fill="#F2F2F2" d="M68.1,18.1L68.1,18.1c0-0.7,0.6-1.1,1.4-1.1c0.4,0,0.7,0.1,1,0.1v-0.1c0-0.6-0.3-0.9-0.9-0.9
		c-0.4,0-0.7,0.1-1,0.2l-0.1-0.4c0.4-0.2,0.7-0.3,1.2-0.3c0.5,0,0.8,0.1,1,0.4c0.2,0.2,0.3,0.5,0.3,0.9v2h-0.5v-0.5
		c-0.2,0.3-0.6,0.5-1.1,0.5C68.7,19.1,68.1,18.8,68.1,18.1z M70.5,17.9v-0.3c-0.2-0.1-0.5-0.1-0.9-0.1c-0.6,0-0.9,0.3-0.9,0.6v0
		c0,0.4,0.4,0.6,0.8,0.6C70,18.7,70.5,18.4,70.5,17.9z"/>
	<path fill="#F2F2F2" d="M71.9,18.2v-1.9h-0.4v-0.4h0.4v-1h0.5v1h1v0.4h-1v1.9c0,0.4,0.2,0.5,0.5,0.5c0.2,0,0.3,0,0.5-0.1V19
		c-0.2,0.1-0.3,0.1-0.6,0.1C72.3,19.1,71.9,18.9,71.9,18.2z"/>
	<path fill="#F2F2F2" d="M74.3,16.3h-0.4v-0.4h0.4v-0.3c0-0.4,0.1-0.6,0.3-0.8c0.2-0.2,0.4-0.2,0.7-0.2c0.2,0,0.4,0,0.5,0.1V15
		c-0.2,0-0.3-0.1-0.5-0.1c-0.4,0-0.6,0.2-0.6,0.7v0.3h1v0.4h-1v2.8h-0.5V16.3z"/>
	<path fill="#F2F2F2" d="M76,17.5L76,17.5c0-0.9,0.7-1.7,1.7-1.7c1,0,1.7,0.8,1.7,1.7v0c0,0.9-0.7,1.7-1.7,1.7
		C76.7,19.1,76,18.4,76,17.5z M78.8,17.5L78.8,17.5c0-0.7-0.5-1.3-1.2-1.3c-0.7,0-1.2,0.6-1.2,1.2v0c0,0.7,0.5,1.2,1.2,1.2
		C78.3,18.7,78.8,18.2,78.8,17.5z"/>
	<path fill="#F2F2F2" d="M80,15.9h0.5v0.8c0.2-0.5,0.7-0.9,1.3-0.9v0.5h0c-0.7,0-1.3,0.5-1.3,1.5v1.3H80V15.9z"/>
	<path fill="#F2F2F2" d="M82.3,15.9h0.5v0.5c0.2-0.3,0.5-0.6,1-0.6c0.5,0,0.9,0.3,1,0.6c0.2-0.4,0.6-0.6,1.1-0.6
		c0.7,0,1.2,0.5,1.2,1.3v2h-0.5v-1.9c0-0.6-0.3-1-0.8-1c-0.5,0-0.9,0.4-0.9,1v1.8h-0.5v-1.9c0-0.6-0.3-1-0.8-1c-0.5,0-0.9,0.4-0.9,1
		v1.8h-0.5V15.9z"/>
</g>
</svg>
